<svg fill="none" height="28" viewBox="0 0 100 28" width="100" xmlns="http://www.w3.org/2000/svg"><path d="m91.1113 17.0039v-5l8.8887 2.5z" fill="#8e8ea0"/><path d="m.00195312 14.5078h63.68704688 31.8729" stroke="#8e8ea0" stroke-miterlimit="16"/><path d="m37.8147 11h1.0617l.6883-1.99501h3.6284l.7116 1.99501h1.0617l-3.045-8.16669h-1.0733zm2.0417-2.84668 1.5283-4.35167 1.5167 4.35167zm9.25 3.00998c1.7616 0 3.08-.945 3.08-2.44997 0-1.06167-.6884-1.73834-1.7384-2.01834l-2.3333-.61834c-.6534-.175-.945-.53667-.945-1.16667 0-.91.7466-1.4 1.8317-1.4 1.2016 0 1.8783.64167 1.8783 1.54v.175h.9917v-.19833c0-1.4-1.1667-2.35667-2.87-2.35667-1.7151 0-2.8701.86333-2.8701 2.32167 0 1.00334.4784 1.66834 1.6684 1.97167l2.275.595c.7117.18667 1.0733.61834 1.0733 1.23667 0 .98001-.77 1.52831-2.03 1.52831-1.295 0-2.0767-.66497-2.0767-1.63331v-.18666h-1.015v.21c0 1.51667 1.295 2.44997 3.0801 2.44997zm6.1955-.1633h1.0734v-7.26835h2.45v-.89834h-5.9734v.89834h2.45zm-21.2522 14h1.19l2.8001-8.1667h-1.0617l-2.3334 7.0817-2.345-7.0817h-1.0616zm5.7048-6.9534c.3733 0 .6417-.2566.6417-.6183s-.2684-.6183-.6417-.6183c-.385 0-.6417.2566-.6417.6183s.2567.6183.6417.6183zm-.525 6.9534h1.0383v-5.9967h-1.0383zm5.1548.14c1.4233 0 2.4733-.7933 2.4733-1.8783 0-.8634-.525-1.3184-1.4467-1.54l-1.8316-.4434c-.4084-.0933-.5951-.3266-.5951-.7116 0-.6067.5484-.9334 1.3301-.9334.8516 0 1.33.455 1.33 1.1317v.0467h.9333v-.0584c0-1.1316-.9567-1.89-2.2517-1.89-1.3417 0-2.31.6067-2.31 1.7617 0 .805.5017 1.33 1.4 1.5283l1.7734.4084c.455.105.7.3733.7.77 0 .7-.63 1.0383-1.4934 1.0383-.9216 0-1.575-.4433-1.575-1.1433v-.0467h-.945v.07c0 1.19 1.0383 1.89 2.5084 1.89zm4.519-7.0934c.3733 0 .6416-.2566.6416-.6183s-.2683-.6183-.6416-.6183c-.385 0-.6417.2566-.6417.6183s.2567.6183.6417.6183zm-.525 6.9534h1.0383v-5.9967h-1.0383zm5.0381 0h.8283v-.8517h-.6067c-.6183 0-.8166-.2333-.8166-.7933v-3.5h1.47v-.8517h-1.47v-1.7033h-1.05v1.7033h-.98v.8517h.98v3.5233c0 1.0267.49 1.6217 1.645 1.6217zm4.6444.14c1.715 0 2.7067-1.1667 2.7067-2.66v-.9567c0-1.4816-.9917-2.66-2.7067-2.66-1.7267 0-2.7183 1.1784-2.7183 2.66v.9567c0 1.4933.9916 2.66 2.7183 2.66zm0-.8283c-1.12 0-1.7033-.7584-1.7033-1.82v-.98c0-1.05.5833-1.8084 1.7033-1.8084 1.1084 0 1.6917.7584 1.6917 1.8084v.98c0 1.0616-.5833 1.82-1.6917 1.82zm4.2384.6883h1.0383v-2.905c0-1.435.6884-2.135 1.7967-2.135h.21v-.9917h-.1517c-1.0383 0-1.7033.455-1.9133 1.365v-1.33h-.98z" fill="#191927"/></svg>